<svg width="149" height="47" viewBox="0 0 149 47" fill="none" xmlns="http://www.w3.org/2000/svg">
<path d="M6.52273 47L0.704545 0.454544H13.1364L15.1364 30.9545H15.5227L28.5682 0.454544H38.7045L41.7045 31.0227H42.0682L54.1591 0.454544H66.5682L45.3182 47H34.4773L30.8182 18.7727H30.4545L17.3409 47H6.52273ZM63.4886 47L71.2159 0.454544H90.625C94.1098 0.454544 96.9508 0.946968 99.1477 1.93182C101.345 2.91666 102.89 4.29545 103.784 6.06818C104.693 7.84091 104.951 9.89394 104.557 12.2273C104.239 13.9848 103.587 15.5606 102.602 16.9545C101.633 18.3333 100.42 19.4848 98.9659 20.4091C97.5114 21.3182 95.9053 21.9545 94.1477 22.3182L94.0568 22.7727C95.9356 22.8485 97.5947 23.3485 99.0341 24.2727C100.489 25.197 101.564 26.4924 102.261 28.1591C102.958 29.8106 103.117 31.75 102.739 33.9773C102.33 36.4773 101.322 38.7121 99.7159 40.6818C98.125 42.6364 96.0265 44.1818 93.4205 45.3182C90.8144 46.4394 87.7992 47 84.375 47H63.4886ZM76.2841 37.9318H83.2386C85.6477 37.9318 87.5114 37.4697 88.8295 36.5455C90.1629 35.6061 90.9508 34.3182 91.1932 32.6818C91.3902 31.4848 91.2841 30.4545 90.875 29.5909C90.4659 28.7121 89.7841 28.0379 88.8295 27.5682C87.875 27.0833 86.6705 26.8409 85.2159 26.8409H78.0568L76.2841 37.9318ZM79.3068 19.5909H85.5568C86.7689 19.5909 87.8826 19.3864 88.8977 18.9773C89.928 18.5682 90.7765 17.9773 91.4432 17.2045C92.125 16.4318 92.5492 15.5 92.7159 14.4091C92.9735 12.8485 92.6174 11.6212 91.6477 10.7273C90.678 9.83333 89.2614 9.38636 87.3977 9.38636H80.9886L79.3068 19.5909ZM105.989 47L113.716 0.454544H132.943C136.428 0.454544 139.337 1.08333 141.67 2.34091C144.004 3.58333 145.663 5.37121 146.648 7.70454C147.633 10.0227 147.86 12.7727 147.33 15.9545C146.814 19.1667 145.663 21.9015 143.875 24.1591C142.102 26.4015 139.814 28.1136 137.011 29.2955C134.223 30.4773 131.057 31.0682 127.511 31.0682H115.352L116.852 22.2045H126.92C128.602 22.2045 130.057 21.9848 131.284 21.5455C132.511 21.0909 133.489 20.4091 134.216 19.5C134.958 18.5758 135.451 17.3939 135.693 15.9545C135.92 14.5151 135.814 13.3258 135.375 12.3864C134.951 11.4318 134.201 10.7197 133.125 10.25C132.064 9.76515 130.701 9.52273 129.034 9.52273H123.489L117.239 47H105.989ZM135.716 25.7273L143.784 47H131.511L123.693 25.7273H135.716Z" fill="black"/>
</svg>
